<svg width="185" height="33" viewBox="0 0 185 33" fill="none" xmlns="http://www.w3.org/2000/svg">
<g clip-path="url(#clip0_1_20548)">
<path d="M43.0483 14.0433C43.0483 12.1432 43.4726 10.446 44.3211 8.95176C45.1882 7.43908 46.3596 6.26767 47.8353 5.43754C49.3296 4.58896 50.9991 4.16467 52.8438 4.16467C55.0021 4.16467 56.893 4.71809 58.5164 5.82493C60.1397 6.93178 61.2742 8.4629 61.9199 10.4183H57.4649C57.0221 9.49596 56.3949 8.80418 55.5832 8.343C54.79 7.88181 53.8676 7.65122 52.8161 7.65122C51.6908 7.65122 50.6855 7.91871 49.8 8.45368C48.933 8.97021 48.2504 9.7081 47.7523 10.6674C47.2727 11.6266 47.0329 12.752 47.0329 14.0433C47.0329 15.3161 47.2727 16.4414 47.7523 17.4191C48.2504 18.3784 48.933 19.1255 49.8 19.6605C50.6855 20.177 51.6908 20.4353 52.8161 20.4353C53.8676 20.4353 54.79 20.2047 55.5832 19.7435C56.3949 19.2639 57.0221 18.5629 57.4649 17.6405H61.9199C61.2742 19.6144 60.1397 21.1547 58.5164 22.2616C56.9114 23.35 55.0206 23.8942 52.8438 23.8942C50.9991 23.8942 49.3296 23.4791 47.8353 22.649C46.3596 21.8004 45.1882 20.629 44.3211 19.1347C43.4726 17.6405 43.0483 15.9434 43.0483 14.0433Z" fill="white"/>
<path d="M72.0359 23.9771C70.5601 23.9771 69.2319 23.6542 68.0513 23.0086C66.8706 22.3445 65.9391 21.4129 65.2565 20.2138C64.5924 19.0147 64.2603 17.6312 64.2603 16.0632C64.2603 14.4951 64.6016 13.1116 65.2842 11.9126C65.9852 10.7135 66.9352 9.7911 68.1343 9.14545C69.3334 8.48134 70.6708 8.14929 72.1466 8.14929C73.6224 8.14929 74.9598 8.48134 76.1589 9.14545C77.358 9.7911 78.2988 10.7135 78.9813 11.9126C79.6823 13.1116 80.0328 14.4951 80.0328 16.0632C80.0328 17.6312 79.6731 19.0147 78.9537 20.2138C78.2527 21.4129 77.2934 22.3445 76.0759 23.0086C74.8768 23.6542 73.5301 23.9771 72.0359 23.9771ZM72.0359 20.6012C72.7369 20.6012 73.3918 20.4352 74.0005 20.1031C74.6278 19.7526 75.1258 19.2361 75.4948 18.5536C75.8637 17.871 76.0482 17.0409 76.0482 16.0632C76.0482 14.6058 75.6608 13.4898 74.886 12.715C74.1297 11.9218 73.1981 11.5252 72.0912 11.5252C70.9844 11.5252 70.0528 11.9218 69.2965 12.715C68.5586 13.4898 68.1896 14.6058 68.1896 16.0632C68.1896 17.5205 68.5494 18.6458 69.2688 19.439C70.0067 20.2138 70.9291 20.6012 72.0359 20.6012Z" fill="white"/>
<path d="M101.912 8.177C103.794 8.177 105.307 8.75809 106.45 9.92027C107.612 11.064 108.194 12.6689 108.194 14.7351V23.7281H104.32V15.2608C104.32 14.0617 104.015 13.1486 103.406 12.5214C102.798 11.8757 101.968 11.5529 100.916 11.5529C99.8645 11.5529 99.0251 11.8757 98.3979 12.5214C97.7892 13.1486 97.4848 14.0617 97.4848 15.2608V23.7281H93.6109V15.2608C93.6109 14.0617 93.3065 13.1486 92.6977 12.5214C92.089 11.8757 91.2588 11.5529 90.2073 11.5529C89.1374 11.5529 88.2888 11.8757 87.6616 12.5214C87.0528 13.1486 86.7484 14.0617 86.7484 15.2608V23.7281H82.8745V8.39837H86.7484V10.2523C87.2465 9.60667 87.883 9.09937 88.6577 8.73042C89.451 8.36147 90.318 8.177 91.2588 8.177C92.4579 8.177 93.5278 8.43526 94.4687 8.95179C95.4095 9.44987 96.1381 10.1693 96.6547 11.1101C97.1527 10.2247 97.8722 9.51443 98.813 8.97946C99.7723 8.44449 100.805 8.177 101.912 8.177Z" fill="white"/>
<path d="M115.744 10.612C116.242 9.91101 116.924 9.32992 117.791 8.86874C118.677 8.38911 119.682 8.14929 120.807 8.14929C122.117 8.14929 123.298 8.47212 124.349 9.11778C125.419 9.76343 126.259 10.6858 126.867 11.8849C127.495 13.0655 127.808 14.4398 127.808 16.0078C127.808 17.5758 127.495 18.9686 126.867 20.1861C126.259 21.3852 125.419 22.3168 124.349 22.9809C123.298 23.645 122.117 23.9771 120.807 23.9771C119.682 23.9771 118.686 23.7465 117.819 23.2853C116.97 22.8241 116.279 22.243 115.744 21.542V31.0332H111.87V8.39833H115.744V10.612ZM123.851 16.0078C123.851 15.0855 123.658 14.2922 123.27 13.6281C122.901 12.9456 122.403 12.4291 121.776 12.0786C121.167 11.7281 120.503 11.5528 119.784 11.5528C119.083 11.5528 118.419 11.7373 117.791 12.1063C117.183 12.4567 116.684 12.9732 116.297 13.6558C115.928 14.3383 115.744 15.1408 115.744 16.0632C115.744 16.9855 115.928 17.788 116.297 18.4705C116.684 19.1531 117.183 19.6788 117.791 20.0478C118.419 20.3983 119.083 20.5735 119.784 20.5735C120.503 20.5735 121.167 20.3891 121.776 20.0201C122.403 19.6512 122.901 19.1254 123.27 18.4429C123.658 17.7603 123.851 16.9486 123.851 16.0078Z" fill="white"/>
<path d="M129.627 16.0078C129.627 14.4582 129.932 13.0839 130.54 11.8849C131.167 10.6858 132.007 9.76343 133.058 9.11778C134.128 8.47212 135.318 8.14929 136.628 8.14929C137.772 8.14929 138.768 8.37988 139.616 8.84106C140.483 9.30225 141.175 9.88334 141.692 10.5843V8.39833H145.593V23.728H141.692V21.4867C141.194 22.2061 140.502 22.8057 139.616 23.2853C138.749 23.7465 137.744 23.9771 136.6 23.9771C135.309 23.9771 134.128 23.645 133.058 22.9809C132.007 22.3168 131.167 21.3852 130.54 20.1861C129.932 18.9686 129.627 17.5758 129.627 16.0078ZM141.692 16.0632C141.692 15.1223 141.507 14.3199 141.138 13.6558C140.769 12.9732 140.271 12.4567 139.644 12.1063C139.017 11.7373 138.344 11.5528 137.624 11.5528C136.905 11.5528 136.241 11.7281 135.632 12.0786C135.023 12.4291 134.525 12.9456 134.138 13.6281C133.769 14.2922 133.584 15.0855 133.584 16.0078C133.584 16.9302 133.769 17.7419 134.138 18.4429C134.525 19.1254 135.023 19.6512 135.632 20.0201C136.259 20.3891 136.923 20.5735 137.624 20.5735C138.344 20.5735 139.017 20.3983 139.644 20.0478C140.271 19.6788 140.769 19.1623 141.138 18.4982C141.507 17.8157 141.692 17.004 141.692 16.0632Z" fill="white"/>
<path d="M157.872 8.177C159.698 8.177 161.174 8.75809 162.299 9.92027C163.425 11.064 163.987 12.6689 163.987 14.7351V23.7281H160.113V15.2608C160.113 14.0433 159.809 13.1117 159.2 12.466C158.591 11.8019 157.761 11.4699 156.71 11.4699C155.64 11.4699 154.791 11.8019 154.164 12.466C153.555 13.1117 153.251 14.0433 153.251 15.2608V23.7281H149.377V8.39837H153.251V10.3077C153.767 9.64356 154.422 9.12704 155.215 8.75809C156.027 8.3707 156.913 8.177 157.872 8.177Z" fill="white"/>
<path d="M182.337 8.39832L172.846 30.9778H168.723L172.043 23.3406L165.9 8.39832H170.245L174.201 19.107L178.214 8.39832H182.337Z" fill="white"/>
<path d="M14.0032 30.8288C8.08841 30.8288 3.3125 26.0162 3.3125 20.1381C3.3125 14.2601 8.08841 9.44751 14.0032 9.44751C19.8812 9.44751 24.6939 14.2234 24.6939 20.1381C24.6571 26.0162 19.8812 30.8288 14.0032 30.8288Z" fill="#0328EE"/>
<path d="M29.805 2.61487H15.7246C14.7737 2.61487 14.0029 3.38571 14.0029 4.3366V18.4171C14.0029 19.368 14.7737 20.1388 15.7246 20.1388H29.805C30.7559 20.1388 31.5268 19.368 31.5268 18.4171V4.3366C31.5268 3.38571 30.7559 2.61487 29.805 2.61487Z" fill="white"/>
</g>
<defs>
<clipPath id="clip0_1_20548">
<rect width="180" height="29" fill="white" transform="translate(2.5 2.53125)"/>
</clipPath>
</defs>
</svg>
