<svg width="184" height="33" viewBox="0 0 184 33" fill="none" xmlns="http://www.w3.org/2000/svg">
<g clip-path="url(#clip0_1_20560)">
<path d="M40.9917 14.4083C40.9917 12.5083 41.4159 10.8111 42.2645 9.31686C43.1315 7.80418 44.303 6.63278 45.7787 5.80265C47.273 4.95407 48.9425 4.52979 50.7872 4.52979C52.9455 4.52979 54.8364 5.08321 56.4597 6.19005C58.0831 7.29689 59.2176 8.82802 59.8633 10.7834H55.4083C54.9655 9.86107 54.3383 9.16929 53.5266 8.70811C52.7334 8.24693 51.811 8.01632 50.7595 8.01632C49.6342 8.01632 48.6289 8.28382 47.7434 8.81879C46.8764 9.33532 46.1938 10.0732 45.6957 11.0325C45.2161 11.9917 44.9763 13.117 44.9763 14.4083C44.9763 15.6812 45.2161 16.8065 45.6957 17.7842C46.1938 18.7435 46.8764 19.4906 47.7434 20.0256C48.6289 20.5421 49.6342 20.8003 50.7595 20.8003C51.811 20.8003 52.7334 20.5698 53.5266 20.1086C54.3383 19.6289 54.9655 18.9279 55.4083 18.0056H59.8633C59.2176 19.9794 58.0831 21.5198 56.4597 22.6266C54.8548 23.715 52.964 24.2592 50.7872 24.2592C48.9425 24.2592 47.273 23.8442 45.7787 23.014C44.303 22.1654 43.1315 20.994 42.2645 19.4998C41.4159 18.0056 40.9917 16.3084 40.9917 14.4083Z" fill="white"/>
<path d="M69.9792 24.3422C68.5034 24.3422 67.1752 24.0194 65.9946 23.3737C64.8139 22.7096 63.8823 21.7781 63.1998 20.579C62.5357 19.3799 62.2036 17.9963 62.2036 16.4283C62.2036 14.8603 62.5449 13.4767 63.2275 12.2777C63.9285 11.0786 64.8785 10.1562 66.0776 9.51056C67.2767 8.84645 68.6141 8.5144 70.0899 8.5144C71.5657 8.5144 72.9031 8.84645 74.1022 9.51056C75.3013 10.1562 76.2421 11.0786 76.9246 12.2777C77.6256 13.4767 77.9761 14.8603 77.9761 16.4283C77.9761 17.9963 77.6164 19.3799 76.8969 20.579C76.1959 21.7781 75.2367 22.7096 74.0192 23.3737C72.8201 24.0194 71.4734 24.3422 69.9792 24.3422ZM69.9792 20.9664C70.6802 20.9664 71.3351 20.8003 71.9438 20.4683C72.571 20.1178 73.0691 19.6013 73.4381 18.9187C73.807 18.2362 73.9915 17.406 73.9915 16.4283C73.9915 14.971 73.6041 13.8549 72.8293 13.0801C72.073 12.2869 71.1414 11.8903 70.0345 11.8903C68.9277 11.8903 67.9961 12.2869 67.2398 13.0801C66.5019 13.8549 66.1329 14.971 66.1329 16.4283C66.1329 17.8857 66.4926 19.011 67.2121 19.8042C67.95 20.579 68.8724 20.9664 69.9792 20.9664Z" fill="white"/>
<path d="M99.855 8.54211C101.737 8.54211 103.25 9.1232 104.393 10.2854C105.555 11.4291 106.137 13.034 106.137 15.1001V24.0932H102.263V15.6259C102.263 14.4268 101.958 13.5136 101.349 12.8864C100.74 12.2408 99.9104 11.9179 98.8589 11.9179C97.8074 11.9179 96.968 12.2408 96.3408 12.8864C95.7321 13.5136 95.4277 14.4268 95.4277 15.6259V24.0932H91.5537V15.6259C91.5537 14.4268 91.2494 13.5136 90.6406 12.8864C90.0318 12.2408 89.2017 11.9179 88.1502 11.9179C87.0803 11.9179 86.2317 12.2408 85.6045 12.8864C84.9957 13.5136 84.6913 14.4268 84.6913 15.6259V24.0932H80.8174V8.76348H84.6913V10.6174C85.1894 9.97178 85.8259 9.46448 86.6006 9.09553C87.3939 8.72659 88.2609 8.54211 89.2017 8.54211C90.4008 8.54211 91.4707 8.80038 92.4116 9.3169C93.3524 9.81498 94.081 10.5344 94.5976 11.4752C95.0956 10.5898 95.8151 9.87955 96.7559 9.34457C97.7152 8.8096 98.7482 8.54211 99.855 8.54211Z" fill="white"/>
<path d="M113.687 10.9771C114.185 10.2761 114.867 9.69503 115.734 9.23385C116.62 8.75422 117.625 8.5144 118.75 8.5144C120.06 8.5144 121.241 8.83723 122.292 9.48289C123.362 10.1285 124.202 11.0509 124.81 12.25C125.438 13.4306 125.751 14.805 125.751 16.373C125.751 17.941 125.438 19.3338 124.81 20.5513C124.202 21.7504 123.362 22.682 122.292 23.3461C121.241 24.0102 120.06 24.3422 118.75 24.3422C117.625 24.3422 116.629 24.1116 115.762 23.6505C114.913 23.1893 114.222 22.6082 113.687 21.9072V31.3983H109.813V8.76344H113.687V10.9771ZM121.794 16.373C121.794 15.4506 121.601 14.6574 121.213 13.9933C120.844 13.3107 120.346 12.7942 119.719 12.4437C119.11 12.0932 118.446 11.9179 117.727 11.9179C117.026 11.9179 116.362 12.1024 115.734 12.4714C115.126 12.8219 114.627 13.3384 114.24 14.0209C113.871 14.7035 113.687 15.506 113.687 16.4283C113.687 17.3507 113.871 18.1531 114.24 18.8357C114.627 19.5183 115.126 20.044 115.734 20.413C116.362 20.7634 117.026 20.9387 117.727 20.9387C118.446 20.9387 119.11 20.7542 119.719 20.3853C120.346 20.0163 120.844 19.4906 121.213 18.808C121.601 18.1255 121.794 17.3138 121.794 16.373Z" fill="white"/>
<path d="M127.57 16.373C127.57 14.8234 127.875 13.4491 128.483 12.25C129.11 11.0509 129.95 10.1285 131.001 9.48289C132.071 8.83723 133.261 8.5144 134.571 8.5144C135.715 8.5144 136.711 8.74499 137.559 9.20618C138.426 9.66736 139.118 10.2485 139.635 10.9495V8.76344H143.536V24.0932H139.635V21.8518C139.137 22.5713 138.445 23.1708 137.559 23.6505C136.692 24.1116 135.687 24.3422 134.543 24.3422C133.252 24.3422 132.071 24.0102 131.001 23.3461C129.95 22.682 129.11 21.7504 128.483 20.5513C127.875 19.3338 127.57 17.941 127.57 16.373ZM139.635 16.4283C139.635 15.4875 139.45 14.685 139.081 14.0209C138.712 13.3384 138.214 12.8219 137.587 12.4714C136.96 12.1024 136.287 11.9179 135.567 11.9179C134.848 11.9179 134.184 12.0932 133.575 12.4437C132.966 12.7942 132.468 13.3107 132.081 13.9933C131.712 14.6574 131.527 15.4506 131.527 16.373C131.527 17.2953 131.712 18.107 132.081 18.808C132.468 19.4906 132.966 20.0163 133.575 20.3853C134.202 20.7542 134.866 20.9387 135.567 20.9387C136.287 20.9387 136.96 20.7634 137.587 20.413C138.214 20.044 138.712 19.5275 139.081 18.8634C139.45 18.1808 139.635 17.3691 139.635 16.4283Z" fill="white"/>
<path d="M155.815 8.54211C157.641 8.54211 159.117 9.1232 160.242 10.2854C161.368 11.4291 161.93 13.034 161.93 15.1001V24.0932H158.056V15.6259C158.056 14.4083 157.752 13.4767 157.143 12.8311C156.534 12.167 155.704 11.8349 154.653 11.8349C153.583 11.8349 152.734 12.167 152.107 12.8311C151.498 13.4767 151.194 14.4083 151.194 15.6259V24.0932H147.32V8.76348H151.194V10.6728C151.71 10.0087 152.365 9.49215 153.158 9.1232C153.97 8.73581 154.856 8.54211 155.815 8.54211Z" fill="white"/>
<path d="M180.28 8.76343L170.789 31.343H166.666L169.986 23.7058L163.843 8.76343H168.187L172.144 19.4721L176.157 8.76343H180.28Z" fill="white"/>
<path d="M5.59846 32.424H2.83691V13.0858H13.1958V24.8267C13.1958 29.022 9.79621 32.424 5.59846 32.424Z" fill="#0328EE"/>
<path d="M27.008 13.0858C27.008 6.41224 21.5982 1 14.9222 1C14.3359 1 13.7595 1.04434 13.1953 1.12564V13.0858H27.008Z" fill="#0328EE"/>
<path d="M23.0949 25.826C25.7441 24.745 27.0154 21.7212 25.9345 19.072C24.8535 16.4228 21.8296 15.1515 19.1804 16.2324C16.5312 17.3134 15.2599 20.3373 16.3409 22.9865C17.4219 25.6357 20.4458 26.907 23.0949 25.826Z" fill="white"/>
</g>
<defs>
<clipPath id="clip0_1_20560">
<rect width="179" height="32" fill="white" transform="translate(2 1)"/>
</clipPath>
</defs>
</svg>
