<svg width="184" height="33" viewBox="0 0 184 33" fill="none" xmlns="http://www.w3.org/2000/svg">
<g clip-path="url(#clip0_1_20535)">
<path d="M25.6021 14.775C21.8417 14.775 18.7892 11.7341 18.7892 7.9969C18.7892 7.50943 18.8473 7.04518 18.9401 6.58093H9.88721C6.38211 6.58093 3.53857 9.41286 3.53857 12.8948V24.5591C3.53857 28.0526 6.38211 30.8729 9.88721 30.8729H21.6096C25.1263 30.8729 27.9582 28.041 27.9582 24.5591V14.3456C27.2386 14.6125 26.4378 14.775 25.6021 14.775Z" fill="#0328EE"/>
<path d="M27.969 24.5591V14.3456C27.2378 14.6125 26.4369 14.775 25.6129 14.775C21.8524 14.775 18.8 11.7341 18.8 7.9969C18.8 7.50943 18.858 7.04518 18.9509 6.58093H9.89795C6.41607 6.58093 3.59574 9.36644 3.54932 12.8252C11.9058 16.2722 20.4945 20.4621 27.9225 25.3599C27.9457 25.093 27.969 24.826 27.969 24.5591Z" fill="#0328EE"/>
<path d="M26.1236 12.4338C28.8511 12.4338 31.0563 10.2402 31.0563 7.52432C31.0563 4.82006 28.8511 2.61487 26.1236 2.61487C23.3961 2.61487 21.1909 4.80845 21.1909 7.52432C21.1909 10.2286 23.3961 12.4338 26.1236 12.4338Z" fill="white"/>
<path d="M56.0086 18.6789C55.8145 19.5039 55.4869 20.3047 55.0258 21.0813C54.5648 21.8336 53.9945 22.513 53.315 23.1197C52.6355 23.7021 51.859 24.1753 50.9854 24.5393C50.1118 24.8791 49.1775 25.0489 48.1826 25.0489C47.042 25.0489 45.9621 24.8305 44.9429 24.3937C43.948 23.9326 43.0622 23.3138 42.2857 22.5373C41.5334 21.7608 40.9268 20.8629 40.4657 19.8437C40.0289 18.8002 39.8105 17.6839 39.8105 16.4948C39.8105 15.3058 40.0289 14.2016 40.4657 13.1824C40.9268 12.139 41.5334 11.229 42.2857 10.4524C43.0622 9.67588 43.948 9.06921 44.9429 8.6324C45.9621 8.17133 47.042 7.9408 48.1826 7.9408C49.1775 7.9408 50.1118 8.1228 50.9854 8.4868C51.859 8.82654 52.6355 9.29974 53.315 9.90642C53.9945 10.4888 54.5648 11.1683 55.0258 11.9448C55.4869 12.6971 55.8145 13.4857 56.0086 14.3108H51.8226C51.6285 13.874 51.3615 13.4857 51.0218 13.146C50.7306 12.8548 50.3545 12.5879 49.8934 12.3452C49.4323 12.0783 48.862 11.9448 48.1826 11.9448C46.9935 11.9448 45.9985 12.3574 45.1977 13.1824C44.3969 14.0075 43.9965 15.1116 43.9965 16.4948C43.9965 17.878 44.3969 18.9822 45.1977 19.8073C45.9985 20.6323 46.9935 21.0449 48.1826 21.0449C48.862 21.0449 49.4323 20.9235 49.8934 20.6809C50.3545 20.4382 50.7306 20.1713 51.0218 19.8801C51.3615 19.5403 51.6285 19.1399 51.8226 18.6789H56.0086Z" fill="white"/>
<path d="M62.9248 16.4948C62.9248 17.878 63.3252 18.9822 64.126 19.8073C64.9268 20.6323 65.9218 21.0449 67.1109 21.0449C68.2999 21.0449 69.2949 20.6323 70.0957 19.8073C70.8965 18.9822 71.2969 17.878 71.2969 16.4948C71.2969 15.1116 70.8965 14.0075 70.0957 13.1824C69.2949 12.3574 68.2999 11.9448 67.1109 11.9448C65.9218 11.9448 64.9268 12.3574 64.126 13.1824C63.3252 14.0075 62.9248 15.1116 62.9248 16.4948ZM75.4829 16.4948C75.4829 17.6839 75.2524 18.8002 74.7913 19.8437C74.3545 20.8629 73.7479 21.7608 72.9713 22.5373C72.219 23.3138 71.3333 23.9326 70.3141 24.3937C69.3191 24.8305 68.2514 25.0489 67.1109 25.0489C65.9703 25.0489 64.8904 24.8305 63.8712 24.3937C62.8763 23.9326 61.9905 23.3138 61.214 22.5373C60.4617 21.7608 59.855 20.8629 59.394 19.8437C58.9572 18.8002 58.7388 17.6839 58.7388 16.4948C58.7388 15.3058 58.9572 14.2016 59.394 13.1824C59.855 12.139 60.4617 11.229 61.214 10.4524C61.9905 9.67588 62.8763 9.06921 63.8712 8.6324C64.8904 8.17133 65.9703 7.9408 67.1109 7.9408C68.2514 7.9408 69.3191 8.17133 70.3141 8.6324C71.3333 9.06921 72.219 9.67588 72.9713 10.4524C73.7479 11.229 74.3545 12.139 74.7913 13.1824C75.2524 14.2016 75.4829 15.3058 75.4829 16.4948Z" fill="white"/>
<path d="M87.1142 7.9408C87.9635 7.9408 88.6915 8.06213 89.2982 8.3048C89.9049 8.5232 90.4024 8.76587 90.7906 9.03281C91.2274 9.34828 91.5793 9.71228 91.8462 10.1248C92.2345 9.71228 92.6834 9.34828 93.1931 9.03281C93.6299 8.76587 94.1516 8.5232 94.7583 8.3048C95.3649 8.06213 96.0323 7.9408 96.7603 7.9408C98.5803 7.9408 100.036 8.5232 101.128 9.68801C102.22 10.8528 102.766 12.5757 102.766 14.8568V24.8669H98.5803V15.2208C98.5803 14.2016 98.3012 13.4008 97.7431 12.8184C97.2092 12.236 96.5783 11.9448 95.8503 11.9448C95.1223 11.9448 94.4792 12.236 93.9211 12.8184C93.3872 13.4008 93.1203 14.2016 93.1203 15.2208V24.8669H88.9342V15.2208C88.9342 14.2016 88.6551 13.4008 88.097 12.8184C87.5631 12.236 86.9322 11.9448 86.2042 11.9448C85.4762 11.9448 84.8331 12.236 84.275 12.8184C83.7411 13.4008 83.4742 14.2016 83.4742 15.2208V24.8669H79.2881V8.1228H82.3821L83.1102 9.76081C83.4499 9.42108 83.826 9.11774 84.2386 8.8508C84.5783 8.6324 84.9908 8.42613 85.4762 8.232C85.9615 8.03786 86.5075 7.9408 87.1142 7.9408Z" fill="white"/>
<path d="M115.87 7.9408C116.914 7.9408 117.909 8.1592 118.855 8.596C119.801 9.00854 120.626 9.60308 121.33 10.3796C122.058 11.1319 122.629 12.0298 123.041 13.0732C123.478 14.1167 123.696 15.2572 123.696 16.4948C123.696 17.7324 123.478 18.873 123.041 19.9165C122.629 20.9599 122.058 21.87 121.33 22.6465C120.626 23.3988 119.801 23.9933 118.855 24.4301C117.909 24.8427 116.914 25.0489 115.87 25.0489C115.166 25.0489 114.548 24.964 114.014 24.7941C113.504 24.6243 113.055 24.4422 112.667 24.2481C112.23 24.0054 111.842 23.7264 111.502 23.4109V30.691H107.316V8.1228H110.41L111.138 9.76081C111.502 9.42108 111.927 9.11774 112.412 8.8508C112.825 8.6324 113.322 8.42613 113.905 8.232C114.487 8.03786 115.142 7.9408 115.87 7.9408ZM111.138 16.4948C111.138 17.878 111.539 18.9822 112.339 19.8073C113.14 20.6323 114.135 21.0449 115.324 21.0449C116.513 21.0449 117.508 20.6323 118.309 19.8073C119.11 18.9822 119.51 17.878 119.51 16.4948C119.51 15.1116 119.11 14.0075 118.309 13.1824C117.508 12.3574 116.513 11.9448 115.324 11.9448C114.135 11.9448 113.14 12.3574 112.339 13.1824C111.539 14.0075 111.138 15.1116 111.138 16.4948Z" fill="white"/>
<path d="M134.44 7.9408C135.386 7.9408 136.26 8.11066 137.061 8.4504C137.862 8.76587 138.553 9.21481 139.136 9.79721C139.718 10.3796 140.167 11.0712 140.483 11.872C140.822 12.6728 140.992 13.5464 140.992 14.4928V24.8669H137.898L137.17 23.2289C136.782 23.5686 136.357 23.872 135.896 24.1389C135.484 24.3816 134.986 24.6 134.404 24.7941C133.821 24.964 133.166 25.0489 132.438 25.0489C130.618 25.0489 129.223 24.6121 128.252 23.7385C127.281 22.8406 126.796 21.7001 126.796 20.3169C126.796 19.4918 126.954 18.7395 127.269 18.06C127.609 17.3563 128.167 16.7618 128.944 16.2764C129.72 15.7668 130.739 15.3786 132.001 15.1116C133.287 14.8204 134.889 14.6748 136.806 14.6748C136.806 13.7527 136.551 13.0368 136.042 12.5272C135.556 12.0176 134.901 11.7628 134.076 11.7628C133.518 11.7628 133.069 11.8599 132.729 12.054C132.414 12.2482 132.159 12.4544 131.965 12.6728C131.746 12.9397 131.601 13.2431 131.528 13.5828H127.342C127.439 12.8063 127.657 12.0783 127.997 11.3988C128.361 10.7194 128.847 10.1248 129.453 9.61521C130.06 9.10561 130.776 8.7052 131.601 8.414C132.45 8.09853 133.397 7.9408 134.44 7.9408ZM133.166 21.7729C134.258 21.7729 135.132 21.4574 135.787 20.8265C136.466 20.1713 136.806 19.3341 136.806 18.3149V17.5868C135.568 17.5868 134.574 17.6475 133.821 17.7688C133.069 17.8659 132.474 18.0236 132.038 18.2421C131.625 18.4362 131.346 18.6789 131.2 18.9701C131.055 19.2613 130.982 19.5889 130.982 19.9529C130.982 20.4139 131.188 20.8386 131.601 21.2269C132.013 21.5909 132.535 21.7729 133.166 21.7729Z" fill="white"/>
<path d="M154.082 7.9408C155.077 7.9408 155.987 8.11066 156.812 8.4504C157.637 8.76587 158.341 9.23908 158.923 9.87002C159.53 10.4767 159.991 11.2168 160.306 12.0904C160.646 12.964 160.816 13.9468 160.816 15.0388V24.8669H156.63V15.5848C156.63 14.4928 156.302 13.6192 155.647 12.964C155.016 12.2846 154.191 11.9448 153.172 11.9448C152.153 11.9448 151.316 12.2846 150.66 12.964C150.029 13.6192 149.714 14.4928 149.714 15.5848V24.8669H145.528V8.1228H148.622L149.35 9.76081C149.763 9.42108 150.211 9.11774 150.697 8.8508C151.109 8.6324 151.595 8.42613 152.153 8.232C152.735 8.03786 153.378 7.9408 154.082 7.9408Z" fill="white"/>
<path d="M163.56 8.1228H167.928L172.114 19.043L175.936 8.1228H180.305C179.115 11.1804 178.036 13.9469 177.065 16.4221C176.652 17.4899 176.24 18.5334 175.827 19.5526C175.439 20.5718 175.087 21.5061 174.772 22.3554C174.456 23.1805 174.189 23.8721 173.971 24.4302C173.752 24.9884 173.619 25.316 173.57 25.413C173.158 26.408 172.745 27.2452 172.333 27.9246C171.945 28.6284 171.52 29.1987 171.059 29.6355C170.598 30.0723 170.1 30.3877 169.566 30.5819C169.033 30.776 168.426 30.8731 167.746 30.8731C167.552 30.8731 167.358 30.8609 167.164 30.8367C166.994 30.8367 166.849 30.8245 166.727 30.8003C166.557 30.776 166.412 30.7396 166.29 30.6911V27.233C167.213 27.233 167.916 27.0268 168.402 26.6142C168.911 26.2017 169.299 25.68 169.566 25.049L169.93 24.139L163.56 8.1228Z" fill="white"/>
</g>
<defs>
<clipPath id="clip0_1_20535">
<rect width="177" height="29" fill="white" transform="translate(3.49219 2.53125)"/>
</clipPath>
</defs>
</svg>
