<svg width="68" height="68" viewBox="0 0 68 68" fill="none" xmlns="http://www.w3.org/2000/svg">
<rect width="68" height="68" rx="20" fill="#0328EE"/>
<g opacity="0.84992">
<path d="M48.6975 19.5032C46.2009 16.4911 42.8317 14.3197 39.0501 13.2856C35.2686 12.2515 31.2588 12.4049 27.5679 13.725C23.8771 15.0451 20.6853 17.4675 18.428 20.6615C16.1707 23.8556 14.9581 27.6657 14.9556 31.5716V36.7538" stroke="white" stroke-opacity="0.4" stroke-width="4.92496" stroke-linecap="round" stroke-linejoin="round"/>
<path d="M21.0117 47.7568C23.6299 50.5201 27.0206 52.4369 30.7448 53.259C34.4691 54.0811 38.3554 53.7707 41.9005 52.368C45.4455 50.9651 48.4862 48.5346 50.6288 45.3911C52.7713 42.2475 53.9172 38.5357 53.9178 34.7361V31.286" stroke="white" stroke-opacity="0.4" stroke-width="4.92496" stroke-linecap="round" stroke-linejoin="round"/>
<path d="M23.5805 28.2664C23.5696 28.4741 23.5007 28.6759 23.3779 28.8511L15.3068 40.24C15.0841 40.5528 14.7176 40.7316 14.3332 40.7116C13.9488 40.6915 13.6031 40.4755 13.4145 40.1412L6.58269 27.9744C6.38469 27.6203 6.39408 27.1862 6.61091 26.8419C6.82633 26.4959 7.21188 26.2958 7.61864 26.317L22.5216 27.095C22.9284 27.1162 23.2908 27.3553 23.4688 27.7218C23.5538 27.8945 23.5903 28.0824 23.5805 28.2664Z" fill="white"/>
<path d="M44.8517 38.6356C44.8589 38.4304 44.9234 38.2301 45.0415 38.0553L52.8077 26.6804C53.022 26.3679 53.3805 26.1852 53.7601 26.1984C54.1397 26.2116 54.4846 26.4187 54.6764 26.7453L61.627 38.6321C61.8285 38.9781 61.8268 39.4065 61.6188 39.75C61.4122 40.095 61.0353 40.299 60.6336 40.285L45.9168 39.7731C45.5151 39.7592 45.1533 39.5294 44.9715 39.1709C44.8846 39.0021 44.8454 38.8173 44.8517 38.6356Z" fill="white"/>
</g>
</svg>
