<svg width="68" height="68" viewBox="0 0 68 68" fill="none" xmlns="http://www.w3.org/2000/svg">
<rect width="68" height="68" rx="20" fill="#0328EE"/>
<path d="M47.4787 21.3452C45.1373 18.5092 41.9777 16.4648 38.4313 15.4911C34.8848 14.5174 31.1243 14.6618 27.663 15.9048C24.2016 17.1477 21.2082 19.4285 19.0913 22.4358C16.9744 25.4432 15.8371 29.0305 15.8347 32.7082V37.5874" stroke="white" stroke-opacity="0.4" stroke-width="5" stroke-linecap="round" stroke-linejoin="round"/>
<path d="M21.5144 47.9472C23.9698 50.549 27.1496 52.3537 30.6423 53.1278C34.135 53.9018 37.7796 53.6095 41.1043 52.2888C44.429 50.968 47.2806 48.6796 49.29 45.7197C51.2993 42.7599 52.3739 39.2651 52.3745 35.6876V32.4392" stroke="white" stroke-opacity="0.4" stroke-width="5" stroke-linecap="round" stroke-linejoin="round"/>
<path d="M23.9235 29.5961C23.9133 29.7918 23.8487 29.9818 23.7336 30.1467L16.1642 40.8699C15.9554 41.1644 15.6117 41.3327 15.2512 41.3138C14.8907 41.2949 14.5665 41.0916 14.3896 40.7768L7.98257 29.3212C7.79687 28.9878 7.80568 28.5791 8.00903 28.2549C8.21105 27.9292 8.57263 27.7407 8.95411 27.7607L22.9305 28.4932C23.3119 28.5132 23.6518 28.7384 23.8187 29.0834C23.8985 29.2459 23.9326 29.4229 23.9235 29.5961Z" fill="white"/>
<path d="M43.8721 39.3593C43.8789 39.1661 43.9394 38.9776 44.0501 38.8129L51.3334 28.1029C51.5344 27.8088 51.8706 27.6367 52.2266 27.6492C52.5826 27.6616 52.906 27.8567 53.0859 28.1641L59.6044 39.356C59.7934 39.6818 59.7917 40.0852 59.5967 40.4086C59.403 40.7334 59.0495 40.9255 58.6728 40.9123L44.8709 40.4304C44.4942 40.4172 44.155 40.2009 43.9844 39.8634C43.9029 39.7044 43.8662 39.5304 43.8721 39.3593Z" fill="white"/>
</svg>
