<svg width="68" height="68" viewBox="0 0 68 68" fill="none" xmlns="http://www.w3.org/2000/svg">
<rect width="68" height="68" rx="20" fill="#0328EE"/>
<g opacity="0.84992" clip-path="url(#clip0_1_20576)">
<path opacity="0.4" d="M15.7512 22.5122H39.5484C40.6493 22.5122 41.5429 23.4052 41.5429 24.5055C41.5429 25.6057 40.6493 26.4988 39.5484 26.4988H15.7512C14.6503 26.4988 13.7568 25.6057 13.7568 24.5055C13.7568 23.4052 14.6503 22.5122 15.7512 22.5122Z" fill="white"/>
<mask id="mask0_1_20576" style="mask-type:alpha" maskUnits="userSpaceOnUse" x="37" y="14" width="18" height="22">
<path fill-rule="evenodd" clip-rule="evenodd" d="M37.4185 35.4653V14H54.5796V35.4653H37.4185Z" fill="white"/>
</mask>
<g mask="url(#mask0_1_20576)">
<path d="M38.7654 14.1832C39.0168 14.1832 39.2646 14.2532 39.4837 14.3896L53.7359 23.3658C54.1274 23.6135 54.3663 24.0425 54.3663 24.5055C54.3663 24.9686 54.1274 25.3977 53.7359 25.6453L39.4837 34.6215C39.0689 34.8818 38.5444 34.898 38.1153 34.6592C37.6842 34.4223 37.4185 33.9718 37.4185 33.4818V15.5294C37.4185 15.0394 37.6842 14.5889 38.1153 14.3519C38.3181 14.2389 38.5427 14.1832 38.7654 14.1832Z" fill="white"/>
</g>
<path opacity="0.4" d="M52.319 46.059H28.5218C27.4208 46.059 26.5273 45.1659 26.5273 44.0657C26.5273 42.9653 27.4208 42.0724 28.5218 42.0724H52.319C53.4198 42.0724 54.3134 42.9653 54.3134 44.0657C54.3134 45.1659 53.4198 46.059 52.319 46.059Z" fill="white"/>
<mask id="mask1_1_20576" style="mask-type:alpha" maskUnits="userSpaceOnUse" x="13" y="33" width="18" height="22">
<path fill-rule="evenodd" clip-rule="evenodd" d="M30.5156 33.1058V54.5711H13.3545V33.1058H30.5156Z" fill="white"/>
</mask>
<g mask="url(#mask1_1_20576)">
<path d="M29.1688 54.3879C28.9174 54.3879 28.6696 54.3179 28.4505 54.1815L14.1982 45.2053C13.8067 44.9576 13.5679 44.5287 13.5679 44.0655C13.5679 43.6025 13.8067 43.1735 14.1982 42.9258L28.4505 33.9497C28.8653 33.6893 29.3898 33.6732 29.8189 33.9119C30.25 34.1488 30.5157 34.5993 30.5157 35.0894V53.0418C30.5157 53.5318 30.25 53.9823 29.8189 54.2192C29.616 54.3322 29.3915 54.3879 29.1688 54.3879Z" fill="white"/>
</g>
</g>
<defs>
<clipPath id="clip0_1_20576">
<rect width="42" height="41" fill="white" transform="translate(13 14)"/>
</clipPath>
</defs>
</svg>
